<?xml version="1.0" standalone="no"?>
<!DOCTYPE svg PUBLIC "-//W3C//DTD SVG 20010904//EN"
 "http://www.w3.org/TR/2001/REC-SVG-20010904/DTD/svg10.dtd">
<svg version="1.0" xmlns="http://www.w3.org/2000/svg"
 width="35.000000pt" height="40.000000pt" viewBox="0 0 45.000000 49.000000"
 preserveAspectRatio="xMidYMid meet">

<g transform="translate(0.000000,49.000000) scale(0.100000,-0.100000)"
fill="#000000" stroke="none">
<path d="M202 464 c-12 -8 -29 -28 -37 -45 -14 -25 -21 -29 -60 -29 -81 0
-104 -50 -56 -119 10 -14 16 -32 14 -39 -3 -7 1 -10 9 -7 7 3 25 -6 41 -20 30
-29 37 -79 12 -89 -26 -10 -77 6 -82 26 -3 10 -9 18 -14 18 -13 0 -11 -13 5
-35 11 -15 26 -20 65 -20 39 0 52 -4 56 -17 22 -66 89 -90 122 -42 10 14 25
33 33 43 8 9 15 33 16 54 0 28 8 46 28 65 l27 27 21 -25 c15 -19 19 -34 15
-65 -5 -37 -5 -39 9 -20 17 23 12 58 -15 96 -18 24 -18 26 -1 50 50 68 31 110
-54 119 -31 3 -56 3 -56 0 0 -4 -17 -12 -37 -19 -31 -10 -44 -10 -70 1 l-32
14 16 32 c9 18 26 35 39 38 13 3 24 10 24 15 0 13 -13 11 -38 -7z m-62 -114
c0 -19 -11 -41 -30 -62 l-30 -33 -20 25 c-24 31 -26 76 -2 89 9 6 32 11 50 11
29 0 32 -3 32 -30z m261 20 c25 -14 24 -58 -1 -90 l-20 -25 -30 33 c-19 21
-30 43 -30 62 0 27 3 30 31 30 17 0 39 -5 50 -10z m-206 -9 c18 -7 17 -9 -13
-25 -31 -16 -32 -16 -32 2 0 31 10 36 45 23z m113 -19 c4 -26 -1 -27 -35 -5
-23 16 -24 17 -7 24 27 11 39 5 42 -19z m-27 -25 c31 -21 34 -27 34 -72 0 -48
-1 -50 -42 -73 l-43 -23 -42 23 c-42 23 -43 25 -43 73 0 45 3 51 34 72 43 29
59 29 102 0z m-151 -74 c0 -36 0 -36 -20 -18 -19 17 -19 19 -4 37 23 24 24 24
24 -19z m224 19 c15 -18 15 -20 -4 -37 -20 -18 -20 -18 -20 18 0 43 1 43 24
19z m-173 -102 c24 -14 24 -26 0 -33 -18 -4 -31 10 -31 34 0 12 7 11 31 -1z
m129 -9 c0 -26 -10 -31 -40 -19 l-25 9 25 14 c34 19 40 18 40 -4z m-37 -34
l28 -12 -23 -35 c-16 -24 -31 -35 -48 -35 -17 0 -32 11 -48 35 l-23 35 28 12
c15 7 35 12 43 12 8 0 28 -5 43 -12z"/>
<path d="M199 264 c-17 -21 0 -49 31 -49 31 0 48 28 31 49 -8 9 -21 16 -31 16
-10 0 -23 -7 -31 -16z m51 -19 c0 -8 -9 -15 -20 -15 -11 0 -20 7 -20 15 0 8 9
15 20 15 11 0 20 -7 20 -15z"/>
<path d="M262 461 c-21 -13 -10 -46 16 -49 27 -4 40 22 22 43 -14 17 -20 18
-38 6z m28 -20 c0 -6 -4 -13 -10 -16 -5 -3 -10 1 -10 9 0 9 5 16 10 16 6 0 10
-4 10 -9z"/>
<path d="M20 195 c0 -8 9 -15 20 -15 11 0 20 7 20 15 0 8 -9 15 -20 15 -11 0
-20 -7 -20 -15z"/>
<path d="M347 116 c-7 -17 18 -40 33 -31 5 3 10 15 10 26 0 23 -35 27 -43 5z"/>
</g>
</svg>
